<?xml version="1.0" encoding="UTF-8" standalone="no"?>
<!-- Created with Inkscape (http://www.inkscape.org/) -->

<svg
   version="1.1"
   id="svg55"
   width="310.12003"
   height="310.12"
   viewBox="0 0 310.12003 310.11999"
   sodipodi:docname="logo.svg"
   inkscape:version="1.2.1 (9c6d41e410, 2022-07-14)"
   xmlns:inkscape="http://www.inkscape.org/namespaces/inkscape"
   xmlns:sodipodi="http://sodipodi.sourceforge.net/DTD/sodipodi-0.dtd"
   xmlns="http://www.w3.org/2000/svg"
   xmlns:svg="http://www.w3.org/2000/svg">
  <defs
     id="defs59" />
  <sodipodi:namedview
     id="namedview57"
     pagecolor="#ffffff"
     bordercolor="#000000"
     borderopacity="0.25"
     inkscape:showpageshadow="2"
     inkscape:pageopacity="0.0"
     inkscape:pagecheckerboard="0"
     inkscape:deskcolor="#d1d1d1"
     showgrid="false"
     inkscape:zoom="1.9751396"
     inkscape:cx="21.770613"
     inkscape:cy="233.40122"
     inkscape:window-width="2560"
     inkscape:window-height="1410"
     inkscape:window-x="0"
     inkscape:window-y="0"
     inkscape:window-maximized="1"
     inkscape:current-layer="layer1" />
  <g
     inkscape:groupmode="layer"
     id="layer1"
     inkscape:label="colors"
     style="display:inline"
     transform="translate(-30.340792,-47.256454)">
    <g
       id="g196"
       transform="translate(-3.9627906,37.90337)">
      <path
         style="fill:#ff0000;fill-opacity:1;stroke-width:1.2843"
         d="m 83.089844,137.52148 c -6.424495,10.31327 -10.147018,22.48855 -10.148438,34.32032 -38.101729,1.6607 -48.998429,56.82923 -11.230468,69.41991 6.436029,2.14596 13.726012,3.1544 21.378906,3.53516 z"
         id="path12703" />
      <path
         style="fill:#ff7f00;fill-opacity:1;stroke-width:1.2843"
         d="m 125.69727,111.23828 c -17.95745,0.0655 -33.192145,11.16882 -42.607426,26.2832 v 107.27539 c 17.563026,0.87384 37.061496,-1.61893 52.886716,-1.80858 V 112.40234 c -3.50656,-0.79552 -6.94006,-1.17623 -10.27929,-1.16406 z"
         id="path12707" />
      <path
         style="fill:#ffff00;fill-opacity:1;stroke-width:1.2843"
         d="m 188.86328,74.335938 c -21.12917,4.321046 -40.41957,17.138777 -49.79297,38.863282 -1.0376,-0.30672 -2.06823,-0.56422 -3.09375,-0.79688 v 130.60742 c 0.60122,-0.006 1.25551,-0.0469 1.84571,-0.0469 h 51.04101 z"
         id="path12713" />
      <path
         style="fill:#00ff00;fill-opacity:1;stroke-width:1.2843"
         d="m 202.73242,72.679687 c -4.65864,0.138593 -9.30196,0.722235 -13.86914,1.656251 V 242.9629 H 241.75 V 81.628907 c -11.69176,-6.319609 -25.36428,-9.355398 -39.01758,-8.94922 z"
         id="path12719" />
      <path
         style="fill:#0000ff;fill-opacity:1;stroke-width:1.2843"
         d="M 241.75,81.628907 V 242.9629 h 0.88085 c 16.9717,0 35.14793,1.84308 52.00782,-0.19337 V 132.16992 c -6.66595,-1.10146 -13.63563,-1.50195 -20.81445,-1.50195 C 271.78518,107.31173 258.91647,90.907698 241.75,81.628907 Z"
         id="path12725" />
      <path
         style="fill:#4b0082;fill-opacity:1;stroke-width:1.2843"
         d="m 294.37891,132.12891 v 110.66406 c 0.21712,-0.0257 0.43956,-0.0356 0.65625,-0.0625 41.62002,-5.18425 57.77788,-58.08872 35.19921,-89.60351 -9.45553,-13.19762 -21.93901,-18.74362 -35.85546,-20.99804 z"
         id="path12731" />
      <path
         style="opacity:0;fill:#4b0082;fill-opacity:1;stroke-width:0.179002"
         d="M 30.340792,164.41308 V 47.256454 h 26.313253 26.313253 v 38.272879 38.272877 l -0.554929,0.52575 c -0.968005,0.91709 -3.274122,3.67604 -4.857906,5.81181 -7.171371,9.67074 -11.489122,21.49212 -12.06497,33.03214 l -0.116709,2.33886 -1.712419,0.21628 c -15.763849,1.99102 -27.192357,12.17104 -31.280491,27.86331 -1.102145,4.23057 -1.391701,6.72586 -1.391701,11.99312 0,5.29032 0.283798,7.72647 1.432586,12.29744 2.803661,11.15563 9.21616,20.55202 17.968226,26.32925 7.340916,4.84574 17.033855,7.4566 30.121305,8.11341 l 2.457008,0.12332 v 14.56139 14.56142 H 56.654045 30.340792 Z"
         id="path6441" />
      <path
         style="opacity:1;fill:#000000;fill-opacity:0;stroke-width:0.506293"
         d="M 30.692484,124.67473 30.630744,47.591572 H 56.70485 82.778956 v 38.077226 38.077222 l -1.724207,1.79338 c -4.755603,4.94638 -10.135392,14.21462 -12.649231,21.79196 -1.304098,3.93087 -2.602952,10.29898 -3.112616,15.26073 l -0.293421,2.85655 -2.799175,0.34974 c -16.130491,2.01537 -28.38327,15.08052 -31.023783,33.08071 -0.237803,1.62108 -0.449275,-30.79799 -0.484041,-74.20436 z"
         id="path6443" />
      <path
         style="opacity:1;fill:#000000;fill-opacity:0;stroke-width:0.506293"
         d="M 30.692484,124.67473 30.630744,47.591572 H 56.70485 82.778956 v 38.077226 38.077222 l -1.724207,1.79338 c -4.755603,4.94638 -10.135392,14.21462 -12.649231,21.79196 -1.304098,3.93087 -2.602952,10.29898 -3.112616,15.26073 l -0.293421,2.85655 -2.799175,0.34974 c -16.130491,2.01537 -28.38327,15.08052 -31.023783,33.08071 -0.237803,1.62108 -0.449275,-30.79799 -0.484041,-74.20436 z"
         id="path8068" />
      <path
         style="opacity:1;fill:#000000;fill-opacity:0;stroke-width:0.506293"
         d="M 30.692484,124.67473 30.630744,47.591572 H 56.70485 82.778956 v 38.077226 38.077222 l -1.724207,1.79338 c -4.755603,4.94638 -10.135392,14.21462 -12.649231,21.79196 -1.304098,3.93087 -2.602952,10.29898 -3.112616,15.26073 l -0.293421,2.85655 -2.799175,0.34974 c -16.130491,2.01537 -28.38327,15.08052 -31.023783,33.08071 -0.237803,1.62108 -0.449275,-30.79799 -0.484041,-74.20436 z"
         id="path8070" />
    </g>
  </g>
  <g
     inkscape:groupmode="layer"
     inkscape:label="Image copy copy copy copy copy copy"
     id="g5628"
     transform="translate(-54.957327,-105.72542)"
     style="display:none">
    <path
       style="fill:#1a1a1a;stroke:none;stroke-width:1.24771"
       d="m 90.071271,224.07262 c -44.847918,3.94029 -44.956719,69.26072 -6.2386,82.91323 21.576769,7.60858 53.332389,1.93147 76.110699,1.93147 h 107.30359 c 17.80741,0 37.28177,2.22717 54.89952,-0.37557 43.97451,-6.49435 63.56864,-61.26037 41.84341,-96.9463 -13.35556,-21.93734 -34.78882,-29.94518 -59.31144,-29.94518 -7.38647,-49.31349 -68.21015,-71.19719 -109.79902,-52.01854 -9.45145,4.35952 -17.7837,10.69417 -24.83829,18.33145 -3.79306,4.10748 -6.65032,10.88632 -11.57507,13.68869 -6.75887,3.84546 -18.21166,1.90402 -25.97246,4.65024 -24.60745,8.70905 -41.879579,31.45992 -42.422339,57.77051 M 298.43987,189.13657 c 22.05339,0 42.4785,3.01323 56.41049,22.45888 22.57868,31.51482 6.42076,84.42049 -35.19931,89.60475 -16.97019,2.11362 -35.30039,0.23082 -52.40409,0.23082 H 162.43881 c -22.8981,0 -54.3318,5.56108 -76.110689,-1.70063 -37.767998,-12.59071 -26.872317,-67.75848 11.22945,-69.41919 0.004,-33.33897 29.444849,-69.48656 66.128949,-58.64267 26.05606,-60.38946 128.6595,-52.3342 134.75335,17.46804 z"
       id="path5624" />
    <path
       style="fill:#000000"
       id="path5626"
       d="" />
  </g>
</svg>
